<?xml version="1.0" standalone="no"?><!-- Generator: Gravit.io --><svg xmlns="http://www.w3.org/2000/svg" xmlns:xlink="http://www.w3.org/1999/xlink" style="isolation:isolate" viewBox="0 0 290 286" width="290" height="286"><defs><clipPath id="_clipPath_B0GJBmHN1JvvONGTkl18RsUxKrd4OrRj"><rect width="290" height="286"/></clipPath></defs><g clip-path="url(#_clipPath_B0GJBmHN1JvvONGTkl18RsUxKrd4OrRj)"><g id="Group"><path d=" M 71.466 39.725 C 92.66 30.213 83.148 51.239 88.655 53.575 C 91.825 54.743 98.834 47.401 125.367 39.892 C 134.378 37.388 138.216 27.042 139.551 25.04 C 140.386 24.038 144.558 18.865 151.233 23.705 C 151.566 23.705 151.566 24.038 151.733 24.205 C 152.167 24.788 152.557 25.402 152.901 26.041 L 153.569 27.376 C 153.903 28.043 157.741 33.55 157.741 33.05 C 157.574 31.381 164.082 28.043 165.083 29.212 L 165.417 29.545 L 165.751 29.879 C 166.251 30.547 168.755 39.558 168.421 40.225 L 169.756 40.726 L 171.425 41.227 L 175.93 43.062 C 180.936 45.232 186.777 50.071 187.111 50.405 C 188.446 49.904 187.111 40.559 193.118 34.885 C 217.983 39.224 220.152 66.258 215.146 69.929 C 214.645 70.263 214.478 70.93 214.145 71.598 C 212.949 73.374 211.609 75.048 210.14 76.604 L 210.306 76.771 C 215.98 83.947 216.648 85.949 220.486 94.293 C 226.711 100.664 232.043 107.85 236.339 115.653 C 243.515 128.168 250.19 144.522 255.029 166.383 C 261.537 195.753 258.7 212.774 253.026 222.119 C 251.691 224.622 248.521 229.295 246.351 231.13 C 242.814 234.386 238.14 236.123 233.335 235.97 C 231.531 235.822 229.801 235.187 228.329 234.134 L 227.661 233.467 L 227.161 233.8 C 226.376 234.598 225.476 235.273 224.491 235.803 C 223.45 236.296 222.304 236.525 221.153 236.47 C 220.136 236.39 219.158 236.045 218.316 235.469 C 217.356 234.642 216.514 233.688 215.813 232.632 C 215.813 232.465 215.813 233.3 215.48 231.965 C 211.308 240.642 206.635 245.648 201.462 253.658 L 193.285 265.507 L 192.785 266.174 L 192.618 266.508 L 192.117 266.842 L 191.783 266.842 L 190.448 267.342 C 183.134 269.121 175.561 269.573 168.087 268.677 C 163.856 268.134 159.708 267.069 155.738 265.507 C 153.068 264.672 146.06 263.504 143.723 262.169 L 143.39 262.169 L 142.889 261.668 C 142.538 261.368 142.303 260.955 142.221 260.5 L 142.221 260.167 L 143.056 253.658 L 141.554 253.658 L 139.885 253.825 L 136.548 253.825 C 135.213 253.825 138.216 253.825 136.548 253.825 L 134.879 253.825 C 133.21 253.825 136.214 253.825 134.879 253.825 L 130.206 253.825 L 130.707 260.333 L 130.707 260.834 L 129.873 262.002 L 129.706 262.002 L 128.371 262.837 C 125.868 264.005 119.026 265.006 116.356 266.007 C 105.155 269.852 93.05 270.201 81.646 267.008 L 81.312 267.008 L 80.978 266.842 C 80.794 266.759 80.625 266.646 80.478 266.508 L 80.311 266.174 L 78.475 263.504 C 75.138 258.832 71.8 254.159 68.796 249.153 C 58.711 232.804 50.854 215.182 45.434 196.754 L 44.6 196.42 C 40.711 194.558 37.114 192.141 33.92 189.245 C 28.773 184.598 25.311 178.378 24.074 171.556 C 23.033 164.488 23.72 157.274 26.076 150.53 C 29.214 139.84 34.306 129.825 41.095 120.993 L 44.099 116.988 C 46.268 108.477 49.439 100.3 53.277 92.457 C 56.948 84.948 60.786 82.111 65.793 75.77 C 65.793 75.436 65.459 75.269 65.292 75.102 C 58.283 66.258 59.451 50.071 68.63 41.727 C 69.464 41.06 70.298 40.225 71.3 39.725 L 71.466 39.725 Z " fill-rule="evenodd" fill="rgb(0,0,0)" fill-opacity="0.2"/><path d=" M 79.143 35.052 C 100.336 25.373 90.824 46.4 96.331 48.736 C 99.335 50.071 106.51 42.562 132.876 35.052 C 142.055 32.549 145.893 22.203 147.228 20.2 C 147.895 19.199 152.234 14.026 158.909 18.865 L 159.41 19.533 C 159.836 20.062 160.226 20.62 160.578 21.202 L 161.245 22.537 C 161.579 23.204 165.25 28.878 165.25 28.21 C 165.25 26.542 171.591 23.204 172.76 24.372 L 173.093 24.706 L 173.427 25.207 C 173.928 25.707 176.264 34.718 176.097 35.386 L 177.265 35.887 L 178.934 36.387 L 183.606 38.223 C 188.613 40.559 194.453 45.398 194.62 45.565 C 196.122 45.065 194.787 35.887 200.795 30.046 C 225.492 34.385 227.661 61.418 222.822 65.09 C 222.321 65.59 222.155 66.258 221.821 66.758 C 220.6 68.516 219.262 70.188 217.816 71.765 L 217.816 71.932 C 223.656 79.107 224.157 81.11 228.162 89.453 C 234.358 95.849 239.688 103.031 244.015 110.813 C 251.191 123.329 257.866 139.85 262.705 161.543 C 269.213 191.08 266.21 208.102 260.703 217.28 C 259.368 219.783 256.197 224.455 254.028 226.458 C 250.464 229.653 245.793 231.329 241.011 231.13 C 238.903 230.917 236.916 230.041 235.338 228.627 L 235.171 228.627 L 234.67 228.961 C 233.936 229.745 233.093 230.42 232.167 230.963 C 231.084 231.508 229.87 231.739 228.663 231.631 C 227.661 231.601 226.684 231.313 225.826 230.797 C 224.913 229.908 224.126 228.897 223.49 227.793 C 223.49 227.626 223.49 228.627 223.156 227.125 C 218.817 235.803 214.311 240.809 208.971 248.819 C 206.468 252.991 203.798 256.829 200.961 260.667 L 200.461 261.335 L 200.294 261.668 L 199.793 262.002 L 199.293 262.002 L 197.958 262.503 C 190.59 264.302 182.958 264.754 175.43 263.838 C 171.223 263.253 167.086 262.246 163.081 260.834 C 160.578 259.833 153.569 258.665 151.066 257.497 L 150.732 257.33 L 150.231 256.829 C 149.952 256.498 149.777 256.092 149.731 255.661 L 149.731 255.327 L 150.565 248.986 L 144.224 248.986 C 142.722 248.986 145.893 249.153 144.224 248.986 L 142.555 249.153 C 140.886 249.153 143.89 249.153 142.555 249.153 L 137.716 248.986 L 138.383 255.494 L 138.383 256.162 L 137.549 257.163 L 136.047 257.997 C 133.711 259.165 126.702 260.333 124.199 261.168 C 112.998 265.013 100.893 265.362 89.489 262.169 L 89.155 262.169 L 88.821 262.002 C 88.637 261.919 88.468 261.806 88.321 261.668 L 88.154 261.335 L 86.151 258.832 C 71.384 238.669 60.258 216.078 53.277 192.082 L 52.443 191.581 C 48.499 189.726 44.845 187.309 41.596 184.405 C 38.307 181.301 35.693 177.552 33.92 173.392 C 33.055 171.244 32.439 169.004 32.084 166.717 C 30.99 159.662 31.62 152.448 33.92 145.69 C 35.287 141.061 37.133 136.587 39.426 132.34 C 42.894 125.25 47.088 118.539 51.942 112.315 C 54.278 103.638 57.282 95.461 61.287 87.618 C 64.958 80.108 68.63 77.438 73.803 70.93 L 73.302 70.263 C 66.293 61.585 67.461 45.232 76.64 36.888 C 77.474 36.22 78.308 35.386 79.31 35.052 L 79.143 35.052 Z " fill-rule="evenodd" fill="rgb(255,255,255)" vector-effect="non-scaling-stroke" stroke-width="1.335" stroke="rgb(206,206,206)" stroke-linejoin="round" stroke-linecap="butt" stroke-miterlimit="1.41"/><path d=" M 85.15 74.101 C 85.15 74.101 61.12 54.743 82.146 40.392 C 91.992 33.55 84.983 42.728 87.153 47.401 C 88.321 50.071 89.489 54.743 101.504 57.58 L 85.15 73.934 L 85.15 74.101 Z  M 206.135 74.101 C 206.135 74.101 230.165 54.743 209.138 40.392 C 199.293 33.55 206.301 42.728 204.132 47.401 C 202.964 50.071 201.796 54.743 189.781 57.58 L 206.135 73.934 L 206.135 74.101 Z " fill-rule="evenodd" fill="rgb(250,181,116)"/><path d=" M 61.287 115.152 C 71.3 77.772 97.499 51.74 121.863 45.398 C 154.57 36.888 149.898 26.542 149.898 26.542 C 149.898 26.542 154.403 18.198 160.244 33.217 C 161.913 37.222 156.239 41.56 156.239 41.56 C 156.239 41.56 165.918 42.562 167.92 33.717 C 167.92 33.717 174.095 40.058 169.088 45.232 L 170.423 45.398 C 189.113 50.405 208.805 66.758 221.487 90.788 C 234.17 101.802 248.688 122.161 257.198 159.708 C 272.217 226.124 234.17 223.788 235.171 215.611 C 235.171 215.611 229.831 224.455 224.991 217.78 C 223.323 215.11 221.988 212.774 221.153 210.772 C 215.313 223.621 207.47 236.804 197.457 250.321 C 184.107 254.159 170.757 252.824 157.407 246.149 L 158.241 236.47 C 154.904 236.804 150.899 236.971 146.226 236.804 C 141.387 236.804 137.382 236.804 134.045 236.47 L 134.712 246.149 C 121.529 252.824 108.179 254.159 94.829 250.321 C 78.141 228.127 67.962 206.6 62.288 186.408 L 62.121 186.408 C 24.575 169.72 49.439 130.505 61.287 115.152 Z " fill-rule="evenodd" fill="rgb(85,206,199)"/><path d=" M 98.667 55.077 L 99.168 54.577 C 105.148 50.297 111.727 46.923 118.692 44.564 L 122.864 43.396 L 124.199 42.895 C 129.864 41.219 135.388 39.098 140.72 36.554 C 142.429 35.526 144.048 34.353 145.559 33.05 C 146.095 32.527 146.597 31.969 147.061 31.381 C 147.061 31.047 147.395 30.88 147.561 30.713 L 148.396 28.21 C 148.459 27.88 148.459 27.54 148.396 27.209 L 148.062 26.875 L 148.062 26.041 L 148.396 25.373 C 148.539 25.082 148.707 24.803 148.896 24.539 C 149.731 23.705 150.565 22.87 151.9 22.537 L 154.07 22.537 C 155.571 22.87 156.74 24.038 157.574 25.207 L 158.075 25.707 L 158.575 26.375 L 159.243 27.376 C 159.828 28.274 160.331 29.224 160.745 30.213 L 161.746 32.549 L 161.746 33.05 L 162.08 34.218 C 162.08 35.219 162.08 36.387 161.579 37.555 C 161.297 38.141 160.961 38.699 160.578 39.224 C 161.149 39.11 161.707 38.943 162.246 38.723 C 163.56 38.013 164.612 36.903 165.25 35.553 C 165.563 34.861 165.787 34.132 165.918 33.383 L 165.918 33.05 L 166.251 32.883 C 166.251 32.716 166.251 32.549 166.585 32.382 C 167.21 31.848 168.13 31.848 168.755 32.382 C 168.998 32.583 169.221 32.807 169.422 33.05 L 170.59 34.552 C 171.997 36.42 172.706 38.723 172.593 41.06 C 172.535 42.037 172.309 42.996 171.925 43.897 C 172.831 44.185 173.723 44.519 174.595 44.898 L 179.101 46.567 C 183.773 48.569 188.112 51.239 192.451 54.243 L 193.285 54.743 L 196.956 53.075 C 198.224 52.398 199.355 51.492 200.294 50.405 C 200.693 49.89 201.029 49.33 201.295 48.736 L 202.13 47.234 C 202.13 47.067 202.13 46.733 202.463 46.567 L 202.463 46.233 C 202.595 45.516 202.595 44.781 202.463 44.063 C 202.463 42.895 202.13 41.894 201.963 40.726 L 201.963 40.058 C 201.796 39.057 201.629 38.223 202.13 37.388 L 202.296 37.055 L 202.797 36.554 C 202.959 36.485 203.127 36.43 203.298 36.387 L 204.299 36.053 L 204.633 36.053 C 205.281 36.157 205.904 36.384 206.468 36.721 L 207.97 37.555 C 209.366 38.351 210.704 39.243 211.975 40.225 C 213.644 41.894 215.313 43.396 216.648 45.232 C 218.339 47.814 219.264 50.823 219.318 53.909 C 219.258 58.699 217.615 63.334 214.645 67.092 C 213.557 68.751 212.328 70.314 210.974 71.765 L 210.974 71.932 C 216.481 78.607 220.986 85.782 224.658 93.458 C 228.162 96.796 231.333 100.801 234.17 104.806 C 242.212 116.36 248.3 129.158 252.192 142.687 C 256.799 157.467 259.491 172.778 260.202 188.243 C 260.084 193.538 259.356 198.802 258.033 203.93 L 257.532 205.598 C 255.882 210.597 252.808 215.005 248.688 218.281 C 245.622 220.581 241.832 221.706 238.008 221.452 C 236.328 221.326 234.714 220.75 233.335 219.783 C 233.094 219.58 232.871 219.357 232.668 219.115 L 232.334 219.449 C 231.597 220.183 230.753 220.802 229.831 221.285 C 229.252 221.59 228.635 221.814 227.995 221.952 L 226.493 221.952 C 225.604 221.881 224.745 221.595 223.99 221.118 C 223.38 220.812 222.818 220.418 222.321 219.95 C 221.536 218.972 220.864 217.909 220.319 216.779 C 214.423 228.83 207.382 240.286 199.293 250.988 L 198.959 251.489 L 198.625 251.823 L 198.291 252.157 L 197.958 252.157 L 196.623 252.49 C 189.755 254.221 182.628 254.674 175.596 253.825 C 169.131 252.964 162.863 250.988 157.073 247.985 L 156.74 247.651 L 156.239 247.317 C 155.924 247.009 155.745 246.589 155.738 246.149 L 155.738 245.982 L 156.406 238.473 L 144.558 238.473 C 141.666 238.546 138.772 238.546 135.88 238.473 L 136.548 245.982 L 136.548 246.483 C 136.381 246.983 136.214 247.317 135.88 247.484 L 135.546 247.651 L 134.378 248.318 C 128.455 251.067 122.156 252.923 115.688 253.825 C 108.638 254.659 101.492 254.092 94.662 252.157 L 94.328 252.157 L 94.161 251.99 C 93.977 251.907 93.808 251.794 93.661 251.656 L 93.494 251.322 C 82.752 236.874 73.788 221.187 66.794 204.597 C 64.486 199.036 62.48 193.354 60.786 187.576 L 59.952 187.242 C 56.448 185.573 52.943 183.404 49.94 180.567 C 46.821 177.777 44.321 174.367 42.597 170.555 C 41.819 168.62 41.259 166.606 40.928 164.547 C 39.887 158.056 40.46 151.407 42.597 145.19 C 43.366 142.677 44.314 140.224 45.434 137.847 C 48.44 130.727 52.307 124.002 56.948 117.822 L 59.618 114.318 C 63.827 99.035 71.031 84.741 80.811 72.265 L 80.311 71.765 C 78.463 69.859 76.787 67.792 75.305 65.59 C 72.664 61.481 71.489 56.601 71.967 51.74 C 72.297 49.409 73.153 47.183 74.47 45.232 C 76.303 42.532 78.693 40.256 81.479 38.557 C 82.445 37.939 83.448 37.381 84.483 36.888 C 85.002 36.583 85.565 36.358 86.151 36.22 L 87.82 36.22 L 88.321 36.554 L 88.821 37.055 L 88.821 37.388 C 89.322 38.223 89.322 39.057 89.155 40.058 L 89.155 40.392 L 88.655 42.895 L 88.488 45.232 L 88.655 46.567 L 89.489 48.235 C 89.851 49.006 90.299 49.734 90.824 50.405 C 91.825 51.573 92.993 52.574 94.328 53.242 C 95.663 53.909 97.165 54.577 98.667 54.91 L 98.667 55.077 Z  M 160.077 236.971 L 159.41 244.981 C 166.04 248.225 173.238 250.152 180.603 250.655 C 185.951 250.894 191.304 250.275 196.456 248.819 L 202.797 239.808 C 216.693 219.374 226.445 196.412 231.5 172.223 C 234.17 157.281 234.34 141.998 232 127 C 229.298 111.307 223.452 96.322 214.812 82.945 C 210.144 75.573 204.534 68.841 198.125 62.92 C 190.894 56.594 182.585 51.62 173.594 48.235 L 171.091 47.401 L 169.589 47.067 L 168.921 47.067 L 168.588 46.9 L 168.421 46.9 C 168.22 46.771 168.049 46.6 167.92 46.4 C 167.387 45.952 167.187 45.22 167.42 44.564 L 168.087 43.73 L 168.421 43.396 C 168.812 42.904 169.097 42.336 169.255 41.727 C 169.491 40.355 169.255 38.944 168.588 37.722 L 168.421 37.555 L 168.087 37.889 C 167.434 38.98 166.586 39.942 165.584 40.726 C 163.631 42.157 161.322 43.024 158.909 43.229 L 155.905 43.229 C 155.73 43.2 155.561 43.144 155.405 43.062 C 154.812 42.728 154.482 42.068 154.57 41.393 L 154.737 40.893 L 155.071 40.392 L 155.405 40.225 L 155.738 39.892 L 156.239 39.391 C 157.004 38.578 157.675 37.683 158.241 36.721 C 158.792 36.01 159.033 35.108 158.909 34.218 L 158.408 33.217 C 157.985 32.071 157.483 30.956 156.906 29.879 L 156.239 29.045 C 156.138 28.817 156.026 28.595 155.905 28.377 L 155.405 27.71 L 155.071 27.376 L 154.737 26.875 L 154.236 26.708 L 154.236 26.375 C 153.903 26.208 153.402 25.874 152.901 26.041 C 152.495 26.218 152.148 26.508 151.9 26.875 L 151.9 28.711 C 151.516 30.918 150.468 32.955 148.896 34.552 C 147.846 35.568 146.731 36.515 145.559 37.388 C 143.147 39.218 140.511 40.732 137.716 41.894 C 133.243 43.937 128.611 45.612 123.865 46.9 C 122.864 46.9 122.03 47.234 121.195 47.401 L 119.86 47.902 C 113.519 49.904 107.678 52.908 102.338 56.746 C 94.801 62.054 88.107 68.467 82.48 75.77 C 73.907 86.914 67.562 99.605 63.79 113.15 L 63.623 113.317 L 63.29 115.319 C 58.517 121.633 54.275 128.331 50.607 135.344 C 48.419 139.908 46.632 144.654 45.267 149.528 C 43.754 155.271 43.754 161.308 45.267 167.05 C 46.855 171.943 49.951 176.207 54.111 179.232 C 55.947 180.567 57.616 181.402 59.952 182.57 C 60.86 182.929 61.816 183.154 62.789 183.237 C 64.958 183.571 66.961 184.405 69.13 184.572 C 73.328 185.033 77.575 184.693 81.646 183.571 C 89.081 181.493 95.934 177.723 101.671 172.557 C 107.038 167.915 111.703 162.518 115.521 156.537 C 116.347 154.768 116.637 152.796 116.356 150.863 L 115.855 150.196 C 115.496 149.061 114.866 148.03 114.02 147.192 C 113.186 146.334 112.23 145.603 111.183 145.023 C 109.732 144.13 108.158 143.455 106.51 143.02 L 106.176 143.02 C 105.739 142.841 105.398 142.484 105.239 142.038 C 105.08 141.592 105.117 141.1 105.342 140.684 L 105.509 140.183 L 105.843 140.017 L 106.677 139.182 L 108.513 137.513 L 109.848 136.345 C 111.038 135.183 112.101 133.896 113.018 132.507 L 113.018 131.84 C 113.352 131.506 113.352 131.005 113.018 130.505 C 112.923 130.378 112.811 130.266 112.685 130.171 C 112.374 129.962 112.037 129.793 111.683 129.67 C 109.732 129.103 107.708 128.822 105.676 128.836 C 103.088 129.134 100.558 129.808 98.166 130.838 C 96.498 131.506 94.829 132.507 93.16 133.508 C 88.321 136.345 83.982 139.683 79.643 143.02 L 78.141 144.022 C 76.544 145.137 74.871 146.14 73.135 147.025 L 72.468 147.025 L 70.799 147.359 C 69.526 147.544 68.233 147.544 66.961 147.359 C 65.873 147.141 64.847 146.685 63.957 146.024 C 63.663 145.822 63.385 145.599 63.123 145.357 C 61.915 143.829 61.215 141.962 61.12 140.017 C 61.01 139.299 60.955 138.573 60.953 137.847 L 60.953 136.178 L 61.12 134.176 C 61.373 132.149 61.763 130.142 62.288 128.168 L 63.456 123.663 L 64.458 122.495 L 66.126 120.826 C 66.385 122.043 66.607 123.267 66.794 124.497 L 66.627 125.165 L 66.293 126.333 L 65.459 129.837 L 64.958 132.674 L 64.625 135.01 L 64.458 136.679 L 64.458 139.85 L 64.625 140.517 L 64.625 141.018 C 64.958 141.852 65.459 142.687 66.126 143.354 L 66.46 143.521 C 66.961 143.855 67.461 143.855 68.129 144.022 L 70.465 143.855 L 71.466 143.855 L 71.967 143.688 L 72.301 143.688 L 73.302 143.02 C 74.556 142.231 75.781 141.396 76.973 140.517 L 82.48 136.679 C 86.732 133.492 91.192 130.593 95.83 128.002 C 98.849 126.64 102.056 125.74 105.342 125.332 C 107.018 125.231 108.7 125.343 110.348 125.665 C 111.432 125.827 112.496 126.107 113.519 126.5 C 114.162 126.66 114.743 127.009 115.188 127.501 L 116.189 128.502 C 116.525 129.006 116.753 129.574 116.856 130.171 C 117.19 131.84 116.69 133.508 115.688 134.843 L 115.355 135.678 C 115.144 135.965 114.921 136.244 114.687 136.512 L 113.686 137.513 C 112.813 138.581 111.865 139.585 110.849 140.517 L 110.515 140.684 L 111.35 141.018 L 112.184 141.352 C 113.853 142.186 115.188 143.187 116.523 144.522 C 117.19 145.357 118.025 146.191 118.525 147.192 C 119.374 148.666 119.833 150.331 119.86 152.032 C 119.86 154.868 118.859 157.705 117.357 160.208 L 116.523 161.71 L 115.355 163.379 C 114.087 165.146 112.692 166.819 111.183 168.385 C 108.311 171.367 105.245 174.154 102.005 176.729 C 95.334 182.246 87.436 186.08 78.976 187.91 C 74.165 188.804 69.222 188.69 64.458 187.576 C 69.478 205.368 77.37 222.222 87.82 237.472 L 95.33 248.152 L 95.83 248.652 L 95.83 248.819 L 97.165 249.153 C 103.179 250.544 109.38 250.939 115.521 250.321 C 121.5 249.569 127.31 247.821 132.71 245.148 L 132.876 245.148 L 132.543 236.971 L 129.706 236.47 C 125.582 235.898 121.509 235.006 117.524 233.8 C 107.126 231.069 97.217 226.734 88.154 220.951 L 87.987 220.784 L 89.656 221.618 L 91.491 222.453 C 106.269 229.203 122.166 233.163 138.383 234.134 L 148.896 234.134 C 169.591 233.567 189.984 229.035 208.971 220.784 C 203.224 223.602 197.38 226.218 191.45 228.627 L 186.443 230.296 C 179.674 232.626 172.762 234.521 165.751 235.97 L 163.081 236.303 L 160.244 236.804 L 160.077 236.971 Z  M 229.33 104.138 C 235.685 120.835 238.305 138.72 237.006 156.537 C 235.789 176.148 230.684 195.321 221.988 212.941 L 222.155 213.108 L 222.989 214.61 L 223.49 215.444 L 223.99 216.112 C 224.188 216.461 224.411 216.796 224.658 217.113 L 224.991 217.447 C 225.492 217.947 226.16 218.448 226.994 218.448 L 227.495 218.448 C 227.854 218.338 228.193 218.169 228.496 217.947 C 229.044 217.623 229.549 217.231 229.998 216.779 C 230.608 216.219 231.167 215.605 231.666 214.943 L 231.666 214.777 L 231.833 214.443 L 232 214.276 C 232.334 214.022 232.751 213.903 233.168 213.942 C 233.785 213.921 234.362 214.242 234.67 214.777 L 234.837 215.444 L 234.837 216.112 C 234.837 216.445 235.171 216.612 235.338 216.779 C 235.59 216.986 235.871 217.154 236.172 217.28 L 237.507 217.78 C 238.881 218.089 240.305 218.089 241.679 217.78 C 244.213 217.231 246.533 215.955 248.354 214.109 C 250.919 211.718 252.866 208.74 254.028 205.432 C 255.823 199.646 256.779 193.633 256.865 187.576 C 257.02 178.288 255.897 169.023 253.527 160.042 C 250.747 147.706 246.721 135.685 241.512 124.163 C 238.175 116.988 234.17 110.313 229.497 104.138 L 229.33 104.138 Z  M 132.876 131.005 C 132.876 131.005 152.901 120.659 159.576 133.008 C 151.069 129.721 141.779 129.024 132.876 131.005 Z  M 166.752 100.801 L 163.915 100.801 C 161.458 100.847 159.001 100.68 156.573 100.3 C 155.936 100.08 155.322 99.8 154.737 99.466 L 153.068 98.465 L 152.901 98.465 L 152.234 96.963 L 153.736 96.462 L 153.903 96.462 L 155.571 97.13 L 156.072 97.463 L 157.407 97.797 L 160.244 97.797 C 163.268 97.812 166.286 97.533 169.255 96.963 L 171.758 96.629 L 176.765 95.795 L 178.934 95.461 C 180.364 95.142 181.813 94.919 183.273 94.793 L 184.441 94.793 C 185.053 94.777 185.665 94.777 186.276 94.793 L 187.278 94.793 C 188.67 94.784 190.062 94.839 191.45 94.96 L 193.118 95.294 C 195.959 95.692 198.719 96.537 201.295 97.797 C 203.465 98.965 205.634 100.467 207.303 102.47 C 208.137 103.304 208.971 104.305 209.305 105.473 L 209.138 105.307 C 208.06 103.982 206.762 102.853 205.3 101.969 C 203.314 100.686 201.107 99.78 198.792 99.299 C 198.239 99.171 197.683 99.06 197.123 98.965 L 194.787 98.798 C 192.401 98.567 189.998 98.567 187.611 98.798 L 185.943 98.798 C 183.99 98.964 182.042 99.187 180.102 99.466 C 180.582 100.452 180.811 101.541 180.77 102.637 C 180.95 105.507 179.399 108.207 176.829 109.498 C 174.259 110.789 171.167 110.421 168.972 108.563 C 166.777 106.704 165.903 103.715 166.752 100.968 L 166.752 100.801 Z  M 100.336 100.3 C 99.168 100.3 98.166 100.634 97.165 100.801 L 94.662 101.468 C 92.26 102.105 89.915 102.942 87.653 103.972 C 87.083 104.261 86.573 104.658 86.151 105.14 L 85.985 105.473 C 85.985 105.14 85.985 104.973 86.318 104.639 C 86.616 104.271 86.951 103.935 87.32 103.638 L 89.155 102.303 C 91.511 100.904 93.965 99.677 96.498 98.632 L 98.166 97.964 L 100.169 97.297 L 102.005 96.629 L 103.673 96.295 L 104.174 96.128 L 106.844 95.461 L 108.012 95.127 C 109.724 94.816 111.45 94.593 113.185 94.46 L 117.858 94.46 C 122.917 94.335 127.939 95.362 132.543 97.463 C 135.697 98.881 138.492 100.992 140.72 103.638 L 140.72 105.473 L 139.051 105.473 L 138.717 104.806 C 136.334 102.379 133.334 100.648 130.04 99.8 C 127.65 99.108 125.183 98.715 122.697 98.632 C 119.754 98.385 116.796 98.385 113.853 98.632 C 114.353 99.466 114.52 100.467 114.52 101.468 C 114.65 104.25 113.158 106.856 110.694 108.153 C 108.229 109.45 105.236 109.203 103.017 107.521 C 100.798 105.838 99.753 103.024 100.336 100.3 Z  M 197.123 79.107 C 198.458 80.275 198.792 83.279 199.293 84.113 C 198.959 85.115 198.458 88.118 197.123 89.287 C 195.745 90.55 193.982 91.314 192.117 91.456 C 187.111 91.79 171.591 91.79 166.585 91.456 C 164.72 91.314 162.957 90.55 161.579 89.287 C 160.244 88.118 159.743 85.115 159.41 84.28 C 159.743 83.279 160.244 80.275 161.412 79.107 C 162.791 77.843 164.554 77.079 166.418 76.938 C 171.591 76.604 186.944 76.604 192.117 76.938 C 193.982 77.079 195.745 77.843 197.123 79.107 Z  M 132.876 68.928 C 134.045 70.096 134.545 73.1 135.046 73.934 C 134.712 74.935 134.045 77.939 132.876 78.94 C 131.521 80.265 129.756 81.089 127.87 81.277 C 122.697 81.61 107.345 81.61 102.171 81.277 C 100.307 81.135 98.544 80.371 97.165 79.107 C 95.997 77.939 95.496 74.935 94.996 74.101 C 95.33 73.1 95.997 70.096 97.165 68.928 C 98.544 67.664 100.307 66.9 102.171 66.758 C 107.345 66.425 122.697 66.425 127.87 66.758 C 129.735 66.9 131.498 67.664 132.876 68.928 Z  M 95.33 57.413 C 92.423 56.282 89.843 54.447 87.82 52.073 C 87.313 51.449 86.867 50.779 86.485 50.071 L 85.484 47.902 L 85.484 47.568 C 85.172 46.485 85.059 45.354 85.15 44.23 L 85.651 40.225 L 85.651 39.892 L 83.481 41.227 L 79.81 44.23 C 78.642 45.398 77.641 46.567 76.806 48.068 C 75.968 49.45 75.402 50.98 75.138 52.574 L 75.138 53.909 C 75.227 57.066 76.211 60.133 77.975 62.753 C 79.36 65.177 81.042 67.419 82.981 69.428 C 86.727 65.06 90.86 61.039 95.33 57.413 Z  M 208.805 68.928 L 209.138 68.427 C 210.693 66.663 212.09 64.764 213.31 62.753 C 215.18 59.757 216.11 56.27 215.98 52.741 C 215.755 51.084 215.187 49.493 214.311 48.068 C 213.559 46.657 212.603 45.364 211.475 44.23 C 209.718 42.591 207.754 41.188 205.634 40.058 C 205.823 40.944 205.99 41.834 206.135 42.728 C 206.385 44.108 206.385 45.521 206.135 46.9 L 205.801 47.902 L 204.966 49.57 C 204.437 50.708 203.764 51.774 202.964 52.741 C 201.216 54.661 199.045 56.146 196.623 57.08 C 200.961 60.584 204.966 64.589 208.805 68.761 L 208.805 68.928 Z " fill-rule="evenodd" fill="rgb(67,50,49)"/></g></g></svg>