<?xml version="1.0" standalone="no"?><!-- Generator: Gravit.io --><svg xmlns="http://www.w3.org/2000/svg" xmlns:xlink="http://www.w3.org/1999/xlink" style="isolation:isolate" viewBox="0 0 492.507 146.706" width="492.507" height="146.706"><defs><clipPath id="_clipPath_cmRyV4RNoGYIPwFGFOgAvzXPlzja6t32"><rect width="492.507" height="146.706"/></clipPath></defs><g clip-path="url(#_clipPath_cmRyV4RNoGYIPwFGFOgAvzXPlzja6t32)"><g id="Group"><g id="Group"><path d=" M 45.254 146.706 L 32.344 146.706 L 79.917 0 L 159.658 0 L 139.569 66.612 L 103.619 66.612 L 128.995 146.568 L 116.307 146.591 L 86.702 54.982 L 128.995 54.982 L 142.767 11.631 L 89.874 11.631 L 45.254 146.706 Z " fill="rgb(255,153,0)"/><path d=" M 28.548 146.568 L 76.128 0 L 65.372 0 L 41.673 73.295 L 17.975 146.591 L 28.548 146.568 Z " fill="rgb(255,198,113)"/><path d=" M 54.77 0 L 38.294 51.018 L 7.401 146.683 L 14.248 146.706 L 61.828 0 L 54.77 0 Z " fill="rgb(255,216,164)"/><path d=" M 47.368 0.115 L 0 146.683 L 4.229 146.706 L 51.81 0.115 L 47.368 0.115 Z " fill="rgb(255,232,197)"/></g><g transform="matrix(1.265,0,0,1.265,144.176,55.647)"><text transform="matrix(1,0,0,1,6.223,65.18)" style="font-family:&quot;Arial&quot;;font-weight:400;font-size:72px;font-style:italic;fill:#ff9900;stroke:none;">esfeber</text></g></g></g></svg>